<mxfile host="app.diagrams.net" modified="2023-03-26T12:44:04.252Z" agent="5.0 (Windows NT 10.0; Win64; x64) AppleWebKit/537.36 (KHTML, like Gecko) Chrome/111.0.0.0 Safari/537.36" etag="v15aZlqzVlBLWvo-18bY" version="21.0.10" type="github">
  <diagram name="Page-1" id="E1EqeKyKdgdfcU3Eb4Ar">
    <mxGraphModel dx="4907" dy="2776" grid="1" gridSize="10" guides="1" tooltips="1" connect="1" arrows="1" fold="1" page="1" pageScale="1" pageWidth="850" pageHeight="1100" math="0" shadow="0">
      <root>
        <mxCell id="0" />
        <mxCell id="1" parent="0" />
        <mxCell id="vgp3z5RlEEKJQW33sawf-9" style="edgeStyle=orthogonalEdgeStyle;rounded=0;orthogonalLoop=1;jettySize=auto;html=1;" parent="1" source="vgp3z5RlEEKJQW33sawf-1" target="vgp3z5RlEEKJQW33sawf-2" edge="1">
          <mxGeometry relative="1" as="geometry" />
        </mxCell>
        <mxCell id="vgp3z5RlEEKJQW33sawf-10" style="edgeStyle=orthogonalEdgeStyle;rounded=0;orthogonalLoop=1;jettySize=auto;html=1;entryX=0.5;entryY=0;entryDx=0;entryDy=0;" parent="1" source="vgp3z5RlEEKJQW33sawf-1" target="vgp3z5RlEEKJQW33sawf-3" edge="1">
          <mxGeometry relative="1" as="geometry" />
        </mxCell>
        <mxCell id="vgp3z5RlEEKJQW33sawf-11" style="edgeStyle=orthogonalEdgeStyle;rounded=0;orthogonalLoop=1;jettySize=auto;html=1;" parent="1" source="vgp3z5RlEEKJQW33sawf-1" target="vgp3z5RlEEKJQW33sawf-4" edge="1">
          <mxGeometry relative="1" as="geometry" />
        </mxCell>
        <mxCell id="vgp3z5RlEEKJQW33sawf-13" style="edgeStyle=orthogonalEdgeStyle;rounded=0;orthogonalLoop=1;jettySize=auto;html=1;exitX=1;exitY=0.5;exitDx=0;exitDy=0;entryX=0.5;entryY=0;entryDx=0;entryDy=0;" parent="1" source="vgp3z5RlEEKJQW33sawf-1" target="vgp3z5RlEEKJQW33sawf-6" edge="1">
          <mxGeometry relative="1" as="geometry" />
        </mxCell>
        <mxCell id="vgp3z5RlEEKJQW33sawf-21" style="edgeStyle=orthogonalEdgeStyle;rounded=0;orthogonalLoop=1;jettySize=auto;html=1;exitX=1;exitY=0.5;exitDx=0;exitDy=0;" parent="1" source="vgp3z5RlEEKJQW33sawf-1" target="vgp3z5RlEEKJQW33sawf-5" edge="1">
          <mxGeometry relative="1" as="geometry">
            <Array as="points">
              <mxPoint x="760" y="55" />
            </Array>
          </mxGeometry>
        </mxCell>
        <mxCell id="vgp3z5RlEEKJQW33sawf-1" value="&lt;div style=&quot;text-align: center;&quot;&gt;&lt;span style=&quot;background-color: initial;&quot;&gt;Chat&lt;/span&gt;&lt;/div&gt;&lt;pre style=&quot;background-color: rgb(255, 255, 255); font-family: &amp;quot;JetBrains Mono&amp;quot;, monospace; font-size: 9.8pt;&quot;&gt;&lt;ol&gt;&lt;li style=&quot;text-align: center;&quot;&gt;&lt;b&gt;GetAllStartedDialogs&lt;/b&gt;&lt;/li&gt;&lt;li&gt;&lt;b style=&quot;font-size: 9.8pt; white-space: normal;&quot;&gt;IfHaveNewMessageTK&lt;/b&gt;&lt;/li&gt;&lt;/ol&gt;&lt;/pre&gt;" style="shape=trapezoid;perimeter=trapezoidPerimeter;whiteSpace=wrap;html=1;fixedSize=1;align=left;" parent="1" vertex="1">
          <mxGeometry x="305" y="10" width="225" height="90" as="geometry" />
        </mxCell>
        <mxCell id="vgp3z5RlEEKJQW33sawf-8" style="edgeStyle=orthogonalEdgeStyle;rounded=0;orthogonalLoop=1;jettySize=auto;html=1;exitX=0.5;exitY=1;exitDx=0;exitDy=0;entryX=0.5;entryY=0;entryDx=0;entryDy=0;" parent="1" source="vgp3z5RlEEKJQW33sawf-2" target="vgp3z5RlEEKJQW33sawf-7" edge="1">
          <mxGeometry relative="1" as="geometry" />
        </mxCell>
        <mxCell id="vgp3z5RlEEKJQW33sawf-2" value="&lt;pre style=&quot;background-color:#ffffff;color:#000000;font-family:&#39;JetBrains Mono&#39;,monospace;font-size:9.8pt;&quot;&gt;&lt;span style=&quot;color:#000080;background-color:#efefef;font-weight:bold;&quot;&gt;ChatNavigation&lt;/span&gt;&lt;/pre&gt;" style="rounded=0;whiteSpace=wrap;html=1;" parent="1" vertex="1">
          <mxGeometry x="10" y="120" width="120" height="50" as="geometry" />
        </mxCell>
        <mxCell id="vgp3z5RlEEKJQW33sawf-15" style="edgeStyle=orthogonalEdgeStyle;rounded=0;orthogonalLoop=1;jettySize=auto;html=1;entryX=1;entryY=0.5;entryDx=0;entryDy=0;" parent="1" source="vgp3z5RlEEKJQW33sawf-3" target="vgp3z5RlEEKJQW33sawf-7" edge="1">
          <mxGeometry relative="1" as="geometry">
            <Array as="points">
              <mxPoint x="230" y="190" />
              <mxPoint x="150" y="190" />
              <mxPoint x="150" y="230" />
            </Array>
          </mxGeometry>
        </mxCell>
        <mxCell id="vgp3z5RlEEKJQW33sawf-3" value="&lt;pre style=&quot;background-color:#ffffff;color:#000000;font-family:&#39;JetBrains Mono&#39;,monospace;font-size:9.8pt;&quot;&gt;&lt;span style=&quot;color:#000080;background-color:#efefef;font-weight:bold;&quot;&gt;ButtonMenuNavigation&lt;/span&gt;&lt;/pre&gt;" style="rounded=0;whiteSpace=wrap;html=1;" parent="1" vertex="1">
          <mxGeometry x="150" y="120" width="150" height="50" as="geometry" />
        </mxCell>
        <mxCell id="vgp3z5RlEEKJQW33sawf-18" style="edgeStyle=orthogonalEdgeStyle;rounded=0;orthogonalLoop=1;jettySize=auto;html=1;entryX=0.427;entryY=-0.007;entryDx=0;entryDy=0;entryPerimeter=0;" parent="1" source="vgp3z5RlEEKJQW33sawf-4" target="vgp3z5RlEEKJQW33sawf-16" edge="1">
          <mxGeometry relative="1" as="geometry" />
        </mxCell>
        <mxCell id="vgp3z5RlEEKJQW33sawf-27" style="edgeStyle=orthogonalEdgeStyle;rounded=0;orthogonalLoop=1;jettySize=auto;html=1;" parent="1" source="vgp3z5RlEEKJQW33sawf-4" target="vgp3z5RlEEKJQW33sawf-26" edge="1">
          <mxGeometry relative="1" as="geometry" />
        </mxCell>
        <mxCell id="vgp3z5RlEEKJQW33sawf-4" value="&lt;pre style=&quot;background-color:#ffffff;color:#000000;font-family:&#39;JetBrains Mono&#39;,monospace;font-size:9.8pt;&quot;&gt;&lt;span style=&quot;color:#000080;background-color:#efefef;font-weight:bold;&quot;&gt;ChatSearchListNormal&lt;/span&gt;&lt;/pre&gt;&lt;pre style=&quot;background-color:#ffffff;color:#000000;font-family:&#39;JetBrains Mono&#39;,monospace;font-size:9.8pt;&quot;&gt;&lt;pre style=&quot;font-family: &amp;quot;JetBrains Mono&amp;quot;, monospace; font-size: 9.8pt;&quot;&gt;ChatSearchList&lt;/pre&gt;&lt;/pre&gt;" style="rounded=0;whiteSpace=wrap;html=1;" parent="1" vertex="1">
          <mxGeometry x="330" y="120" width="170" height="60" as="geometry" />
        </mxCell>
        <mxCell id="vgp3z5RlEEKJQW33sawf-33" style="edgeStyle=orthogonalEdgeStyle;rounded=0;orthogonalLoop=1;jettySize=auto;html=1;entryX=1;entryY=0.5;entryDx=0;entryDy=0;" parent="1" source="vgp3z5RlEEKJQW33sawf-5" target="vgp3z5RlEEKJQW33sawf-28" edge="1">
          <mxGeometry relative="1" as="geometry" />
        </mxCell>
        <mxCell id="vgp3z5RlEEKJQW33sawf-37" style="edgeStyle=orthogonalEdgeStyle;rounded=0;orthogonalLoop=1;jettySize=auto;html=1;entryX=0.5;entryY=0;entryDx=0;entryDy=0;" parent="1" source="vgp3z5RlEEKJQW33sawf-5" target="vgp3z5RlEEKJQW33sawf-34" edge="1">
          <mxGeometry relative="1" as="geometry" />
        </mxCell>
        <mxCell id="vgp3z5RlEEKJQW33sawf-39" style="edgeStyle=orthogonalEdgeStyle;rounded=0;orthogonalLoop=1;jettySize=auto;html=1;" parent="1" source="vgp3z5RlEEKJQW33sawf-5" target="vgp3z5RlEEKJQW33sawf-38" edge="1">
          <mxGeometry relative="1" as="geometry" />
        </mxCell>
        <mxCell id="vgp3z5RlEEKJQW33sawf-5" value="&lt;pre style=&quot;background-color:#ffffff;color:#000000;font-family:&#39;JetBrains Mono&#39;,monospace;font-size:9.8pt;&quot;&gt;&lt;span style=&quot;color:#000080;background-color:#efefef;font-weight:bold;&quot;&gt;ChatWind&lt;/span&gt;&lt;/pre&gt;&lt;pre style=&quot;background-color:#ffffff;color:#000000;font-family:&#39;JetBrains Mono&#39;,monospace;font-size:9.8pt;&quot;&gt;&lt;span style=&quot;color:#000080;background-color:#efefef;font-weight:bold;&quot;&gt;Request:&lt;/span&gt;&lt;/pre&gt;&lt;pre style=&quot;background-color:#ffffff;color:#000000;font-family:&#39;JetBrains Mono&#39;,monospace;font-size:9.8pt;&quot;&gt;&lt;pre style=&quot;font-family: &amp;quot;JetBrains Mono&amp;quot;, monospace; font-size: 9.8pt;&quot;&gt;GetNextPageMessage&lt;/pre&gt;&lt;pre style=&quot;font-family: &amp;quot;JetBrains Mono&amp;quot;, monospace; font-size: 9.8pt;&quot;&gt;GetMessageBottomTS&lt;/pre&gt;&lt;pre style=&quot;font-family: &amp;quot;JetBrains Mono&amp;quot;, monospace; font-size: 9.8pt;&quot;&gt;useEffect[]&lt;/pre&gt;&lt;pre style=&quot;font-family: &amp;quot;JetBrains Mono&amp;quot;, monospace; font-size: 9.8pt;&quot;&gt;&lt;br&gt;&lt;/pre&gt;&lt;/pre&gt;" style="rounded=0;whiteSpace=wrap;html=1;" parent="1" vertex="1">
          <mxGeometry x="680" y="120" width="140" height="170" as="geometry" />
        </mxCell>
        <mxCell id="vgp3z5RlEEKJQW33sawf-6" value="&lt;pre style=&quot;background-color:#ffffff;color:#000000;font-family:&#39;JetBrains Mono&#39;,monospace;font-size:9.8pt;&quot;&gt;&lt;span style=&quot;color:#000080;background-color:#efefef;font-weight:bold;&quot;&gt;ChatProfile&lt;/span&gt;&lt;/pre&gt;&lt;pre style=&quot;background-color:#ffffff;color:#000000;font-family:&#39;JetBrains Mono&#39;,monospace;font-size:9.8pt;&quot;&gt;&lt;pre style=&quot;font-family: &amp;quot;JetBrains Mono&amp;quot;, monospace; font-size: 9.8pt;&quot;&gt;ChatProfileAdoptive&lt;/pre&gt;&lt;pre style=&quot;font-family: &amp;quot;JetBrains Mono&amp;quot;, monospace; font-size: 9.8pt;&quot;&gt;useEffect[UsersStartedDialogs.&lt;span style=&quot;font-size: 9.8pt; color: rgb(102, 14, 122); font-weight: bold;&quot;&gt;idUser&lt;/span&gt;]&lt;span style=&quot;font-size: 9.8pt;&quot;&gt;:&lt;/span&gt;&lt;/pre&gt;&lt;pre style=&quot;text-align: left; font-family: &amp;quot;JetBrains Mono&amp;quot;, monospace; font-size: 9.8pt;&quot;&gt;&lt;ol&gt;&lt;li&gt;&lt;pre style=&quot;font-family: &amp;quot;JetBrains Mono&amp;quot;, monospace; font-size: 9.8pt;&quot;&gt;GetMyProfilTK&lt;/pre&gt;&lt;/li&gt;&lt;/ol&gt;&lt;/pre&gt;&lt;/pre&gt;" style="rounded=0;whiteSpace=wrap;html=1;" parent="1" vertex="1">
          <mxGeometry x="990" y="115" width="300" height="115" as="geometry" />
        </mxCell>
        <mxCell id="vgp3z5RlEEKJQW33sawf-7" value="&lt;pre style=&quot;background-color:#ffffff;color:#000000;font-family:&#39;JetBrains Mono&#39;,monospace;font-size:9.8pt;&quot;&gt;&lt;span style=&quot;color:#000080;background-color:#efefef;font-weight:bold;&quot;&gt;IconsNavigation&lt;/span&gt;&lt;/pre&gt;" style="rounded=0;whiteSpace=wrap;html=1;" parent="1" vertex="1">
          <mxGeometry x="10" y="210" width="120" height="60" as="geometry" />
        </mxCell>
        <mxCell id="vgp3z5RlEEKJQW33sawf-19" style="edgeStyle=orthogonalEdgeStyle;rounded=0;orthogonalLoop=1;jettySize=auto;html=1;entryX=0.5;entryY=0;entryDx=0;entryDy=0;" parent="1" source="vgp3z5RlEEKJQW33sawf-16" target="vgp3z5RlEEKJQW33sawf-17" edge="1">
          <mxGeometry relative="1" as="geometry" />
        </mxCell>
        <mxCell id="vgp3z5RlEEKJQW33sawf-16" value="&lt;pre style=&quot;background-color:#ffffff;color:#000000;font-family:&#39;JetBrains Mono&#39;,monospace;font-size:9.8pt;&quot;&gt;&lt;span style=&quot;font-style:italic;&quot;&gt;ChatSearchButton&lt;/span&gt;&lt;/pre&gt;" style="rounded=0;whiteSpace=wrap;html=1;" parent="1" vertex="1">
          <mxGeometry x="260" y="210" width="120" height="60" as="geometry" />
        </mxCell>
        <mxCell id="vgp3z5RlEEKJQW33sawf-24" style="edgeStyle=orthogonalEdgeStyle;rounded=0;orthogonalLoop=1;jettySize=auto;html=1;entryX=0.5;entryY=0;entryDx=0;entryDy=0;" parent="1" source="vgp3z5RlEEKJQW33sawf-17" target="vgp3z5RlEEKJQW33sawf-22" edge="1">
          <mxGeometry relative="1" as="geometry" />
        </mxCell>
        <mxCell id="vgp3z5RlEEKJQW33sawf-25" style="edgeStyle=orthogonalEdgeStyle;rounded=0;orthogonalLoop=1;jettySize=auto;html=1;entryX=0.5;entryY=0;entryDx=0;entryDy=0;" parent="1" source="vgp3z5RlEEKJQW33sawf-17" target="vgp3z5RlEEKJQW33sawf-23" edge="1">
          <mxGeometry relative="1" as="geometry" />
        </mxCell>
        <mxCell id="vgp3z5RlEEKJQW33sawf-17" value="&lt;pre style=&quot;background-color:#ffffff;color:#000000;font-family:&#39;JetBrains Mono&#39;,monospace;font-size:9.8pt;&quot;&gt;&lt;span style=&quot;color:#000080;background-color:#efefef;font-weight:bold;&quot;&gt;SearchInput&lt;/span&gt;&lt;/pre&gt;&lt;pre style=&quot;background-color:#ffffff;color:#000000;font-family:&#39;JetBrains Mono&#39;,monospace;font-size:9.8pt;&quot;&gt;&lt;pre style=&quot;font-family: &amp;quot;JetBrains Mono&amp;quot;, monospace; font-size: 9.8pt;&quot;&gt;&lt;ol&gt;&lt;li&gt;&lt;u&gt;getSearchUsersTK&lt;/u&gt;&lt;/li&gt;&lt;/ol&gt;&lt;/pre&gt;&lt;/pre&gt;" style="rounded=0;whiteSpace=wrap;html=1;" parent="1" vertex="1">
          <mxGeometry x="205" y="310" width="170" height="60" as="geometry" />
        </mxCell>
        <mxCell id="vgp3z5RlEEKJQW33sawf-22" value="&lt;pre style=&quot;background-color:#ffffff;color:#000000;font-family:&#39;JetBrains Mono&#39;,monospace;font-size:9.8pt;&quot;&gt;&lt;span style=&quot;color:#000080;background-color:#efefef;font-weight:bold;&quot;&gt;SimpleDialog&lt;/span&gt;&lt;/pre&gt;&lt;pre style=&quot;background-color:#ffffff;color:#000000;font-family:&#39;JetBrains Mono&#39;,monospace;font-size:9.8pt;&quot;&gt;&lt;span style=&quot;color:#000080;background-color:#efefef;font-weight:bold;&quot;&gt;props:&lt;/span&gt;&lt;/pre&gt;&lt;pre style=&quot;background-color: rgb(255, 255, 255);&quot;&gt;&lt;pre style=&quot;&quot;&gt;&lt;ol style=&quot;color: rgb(0, 0, 0); font-family: &amp;quot;JetBrains Mono&amp;quot;, monospace; font-size: 9.8pt;&quot;&gt;&lt;li style=&quot;text-align: left;&quot;&gt;NameUse&lt;/li&gt;&lt;li style=&quot;text-align: left;&quot;&gt;idUser&lt;/li&gt;&lt;li style=&quot;text-align: left;&quot;&gt;selectedValue&lt;/li&gt;&lt;li style=&quot;text-align: left;&quot;&gt;key&lt;/li&gt;&lt;li style=&quot;text-align: left;&quot;&gt;open&lt;/li&gt;&lt;li style=&quot;text-align: left;&quot;&gt;onClose&lt;/li&gt;&lt;/ol&gt;&lt;font face=&quot;JetBrains Mono, monospace&quot;&gt;&lt;span style=&quot;font-size: 13.0667px;&quot;&gt;Reques&lt;/span&gt;&lt;/font&gt;&lt;/pre&gt;&lt;pre style=&quot;&quot;&gt;&lt;pre style=&quot;font-family: &amp;quot;JetBrains Mono&amp;quot;, monospace; font-size: 9.8pt;&quot;&gt;&lt;ol&gt;&lt;li style=&quot;text-align: left;&quot;&gt;FollowTK&lt;/li&gt;&lt;li style=&quot;text-align: left;&quot;&gt;Api getResponstFollow&lt;/li&gt;&lt;li style=&quot;text-align: left;&quot;&gt;UnFollowTK&lt;/li&gt;&lt;li style=&quot;text-align: left;&quot;&gt;Api getResponstFollow&lt;/li&gt;&lt;li style=&quot;text-align: left;&quot;&gt;StartDialogs&lt;/li&gt;&lt;/ol&gt;useEffect[props.idUser]&lt;/pre&gt;&lt;pre style=&quot;font-family: &amp;quot;JetBrains Mono&amp;quot;, monospace; font-size: 9.8pt;&quot;&gt;&lt;ol&gt;&lt;li style=&quot;text-align: left;&quot;&gt;&lt;pre style=&quot;font-family: &amp;quot;JetBrains Mono&amp;quot;, monospace; font-size: 9.8pt;&quot;&gt;Api getResponstFollow&lt;/pre&gt;&lt;/li&gt;&lt;/ol&gt;&lt;/pre&gt;&lt;/pre&gt;&lt;/pre&gt;" style="rounded=0;whiteSpace=wrap;html=1;" parent="1" vertex="1">
          <mxGeometry x="-140" y="420" width="200" height="340" as="geometry" />
        </mxCell>
        <mxCell id="vgp3z5RlEEKJQW33sawf-23" value="&lt;pre style=&quot;background-color:#ffffff;color:#000000;font-family:&#39;JetBrains Mono&#39;,monospace;font-size:9.8pt;&quot;&gt;&lt;span style=&quot;color:#000080;background-color:#efefef;font-weight:bold;&quot;&gt;SetingsForSearch&lt;/span&gt;&lt;/pre&gt;&lt;pre style=&quot;background-color:#ffffff;color:#000000;font-family:&#39;JetBrains Mono&#39;,monospace;font-size:9.8pt;&quot;&gt;&lt;span style=&quot;color:#000080;background-color:#efefef;font-weight:bold;&quot;&gt;Request:&lt;/span&gt;&lt;/pre&gt;&lt;pre style=&quot;background-color:#ffffff;color:#000000;font-family:&#39;JetBrains Mono&#39;,monospace;font-size:9.8pt;&quot;&gt;&lt;pre style=&quot;text-align: left; font-family: &amp;quot;JetBrains Mono&amp;quot;, monospace; font-size: 9.8pt;&quot;&gt;&lt;ol&gt;&lt;li&gt;SetSettingsTypeOfUsersSearchAC&lt;/li&gt;&lt;li&gt;SetSettingsSearchSizeAC&lt;/li&gt;&lt;/ol&gt;&lt;/pre&gt;&lt;/pre&gt;" style="rounded=0;whiteSpace=wrap;html=1;" parent="1" vertex="1">
          <mxGeometry x="100" y="420" width="260" height="90" as="geometry" />
        </mxCell>
        <mxCell id="vgp3z5RlEEKJQW33sawf-29" style="edgeStyle=orthogonalEdgeStyle;rounded=0;orthogonalLoop=1;jettySize=auto;html=1;entryX=0.5;entryY=0;entryDx=0;entryDy=0;" parent="1" source="vgp3z5RlEEKJQW33sawf-26" target="vgp3z5RlEEKJQW33sawf-28" edge="1">
          <mxGeometry relative="1" as="geometry" />
        </mxCell>
        <mxCell id="vgp3z5RlEEKJQW33sawf-26" value="&lt;pre style=&quot;background-color:#ffffff;color:#000000;font-family:&#39;JetBrains Mono&#39;,monospace;font-size:9.8pt;&quot;&gt;&lt;span style=&quot;color:#000080;background-color:#efefef;font-weight:bold;&quot;&gt;ChatAccesListUser&lt;/span&gt;&lt;/pre&gt;&lt;pre style=&quot;background-color:#ffffff;color:#000000;font-family:&#39;JetBrains Mono&#39;,monospace;font-size:9.8pt;&quot;&gt;&lt;span style=&quot;color:#000080;background-color:#efefef;font-weight:bold;&quot;&gt;Request&lt;/span&gt;&lt;/pre&gt;&lt;pre style=&quot;background-color:#ffffff;color:#000000;font-family:&#39;JetBrains Mono&#39;,monospace;font-size:9.8pt;&quot;&gt;&lt;pre style=&quot;font-family: &amp;quot;JetBrains Mono&amp;quot;, monospace; font-size: 9.8pt;&quot;&gt;&lt;ol&gt;&lt;li&gt;Currenst_Page_DialogsAC&lt;span style=&quot;white-space: pre;&quot;&gt;	&lt;/span&gt;&lt;/li&gt;&lt;/ol&gt;&lt;/pre&gt;&lt;/pre&gt;" style="rounded=0;whiteSpace=wrap;html=1;" parent="1" vertex="1">
          <mxGeometry x="420" y="210" width="220" height="80" as="geometry" />
        </mxCell>
        <mxCell id="vgp3z5RlEEKJQW33sawf-31" style="edgeStyle=orthogonalEdgeStyle;rounded=0;orthogonalLoop=1;jettySize=auto;html=1;" parent="1" source="vgp3z5RlEEKJQW33sawf-28" target="vgp3z5RlEEKJQW33sawf-30" edge="1">
          <mxGeometry relative="1" as="geometry">
            <Array as="points">
              <mxPoint x="305" y="650" />
            </Array>
          </mxGeometry>
        </mxCell>
        <mxCell id="vgp3z5RlEEKJQW33sawf-28" value="&lt;pre style=&quot;background-color:#ffffff;color:#000000;font-family:&#39;JetBrains Mono&#39;,monospace;font-size:9.8pt;&quot;&gt;&lt;span style=&quot;color:#000080;background-color:#efefef;font-weight:bold;&quot;&gt;TableUsers&lt;/span&gt;&lt;/pre&gt;&lt;pre style=&quot;background-color:#ffffff;color:#000000;font-family:&#39;JetBrains Mono&#39;,monospace;font-size:9.8pt;&quot;&gt;&lt;span style=&quot;color:#000080;background-color:#efefef;font-weight:bold;&quot;&gt;props:&lt;/span&gt;&lt;/pre&gt;&lt;pre style=&quot;background-color: rgb(255, 255, 255);&quot;&gt;&lt;pre style=&quot;&quot;&gt;&lt;ol style=&quot;color: rgb(0, 0, 0); font-family: &amp;quot;JetBrains Mono&amp;quot;, monospace; font-size: 9.8pt;&quot;&gt;&lt;li style=&quot;text-align: left;&quot;&gt;idUser&lt;/li&gt;&lt;li style=&quot;text-align: left;&quot;&gt;key&lt;/li&gt;&lt;li style=&quot;text-align: left;&quot;&gt;userName&lt;/li&gt;&lt;li style=&quot;text-align: left;&quot;&gt;photos&lt;/li&gt;&lt;li style=&quot;text-align: left;&quot;&gt;lastDialogActivityDate&lt;/li&gt;&lt;li style=&quot;text-align: left;&quot;&gt;LastActiveUser&lt;/li&gt;&lt;li style=&quot;text-align: left;&quot;&gt;versios&lt;/li&gt;&lt;li style=&quot;text-align: left;&quot;&gt;TypeOfUser&lt;/li&gt;&lt;/ol&gt;&lt;font face=&quot;JetBrains Mono, monospace&quot;&gt;&lt;span style=&quot;font-size: 9.8pt;&quot;&gt;Request&lt;br&gt;&lt;/span&gt;&lt;/font&gt;&lt;ol style=&quot;color: rgb(0, 0, 0); font-family: &amp;quot;JetBrains Mono&amp;quot;, monospace; font-size: 9.8pt;&quot;&gt;&lt;li style=&quot;text-align: left;&quot;&gt;&lt;pre style=&quot;font-family: &amp;quot;JetBrains Mono&amp;quot;, monospace; font-size: 9.8pt;&quot;&gt;GetMessage&lt;/pre&gt;&lt;/li&gt;&lt;/ol&gt;&lt;pre style=&quot;font-family: &amp;quot;JetBrains Mono&amp;quot;, monospace; font-size: 9.8pt;&quot;&gt;useEffect[props.idUser&lt;span style=&quot;font-size: 9.8pt;&quot;&gt;]&lt;/span&gt;&lt;/pre&gt;&lt;pre style=&quot;font-family: &amp;quot;JetBrains Mono&amp;quot;, monospace; font-size: 9.8pt;&quot;&gt;&lt;ol&gt;&lt;li style=&quot;text-align: left;&quot;&gt;GetLastMessage&lt;/li&gt;&lt;/ol&gt;&lt;/pre&gt;&lt;pre style=&quot;font-family: &amp;quot;JetBrains Mono&amp;quot;, monospace; font-size: 9.8pt;&quot;&gt;&lt;span style=&quot;font-size: 9.8pt;&quot;&gt;&lt;br&gt;&lt;/span&gt;&lt;/pre&gt;&lt;/pre&gt;&lt;/pre&gt;" style="rounded=0;whiteSpace=wrap;html=1;" parent="1" vertex="1">
          <mxGeometry x="430" y="350" width="200" height="330" as="geometry" />
        </mxCell>
        <mxCell id="vgp3z5RlEEKJQW33sawf-30" value="&lt;pre style=&quot;background-color:#ffffff;color:#000000;font-family:&#39;JetBrains Mono&#39;,monospace;font-size:9.8pt;&quot;&gt;&lt;span style=&quot;color:#000080;background-color:#efefef;font-weight:bold;&quot;&gt;FunktionalUser&lt;/span&gt;&lt;/pre&gt;&lt;pre style=&quot;background-color:#ffffff;color:#000000;font-family:&#39;JetBrains Mono&#39;,monospace;font-size:9.8pt;&quot;&gt;&lt;span style=&quot;color:#000080;background-color:#efefef;font-weight:bold;&quot;&gt;props:&lt;/span&gt;&lt;/pre&gt;&lt;pre style=&quot;background-color:#ffffff;color:#000000;font-family:&#39;JetBrains Mono&#39;,monospace;font-size:9.8pt;&quot;&gt;&lt;pre style=&quot;font-family: &amp;quot;JetBrains Mono&amp;quot;, monospace; font-size: 9.8pt;&quot;&gt;&lt;ol&gt;&lt;li style=&quot;text-align: left;&quot;&gt;idUser&lt;/li&gt;&lt;li style=&quot;text-align: left;&quot;&gt;typeOfUser&lt;/li&gt;&lt;/ol&gt;Reques&lt;/pre&gt;&lt;pre style=&quot;font-family: &amp;quot;JetBrains Mono&amp;quot;, monospace; font-size: 9.8pt;&quot;&gt;&lt;ol&gt;&lt;li style=&quot;text-align: left;&quot;&gt;&lt;pre style=&quot;font-family: &amp;quot;JetBrains Mono&amp;quot;, monospace; font-size: 9.8pt;&quot;&gt;UnFollowTK&lt;/pre&gt;&lt;/li&gt;&lt;li style=&quot;text-align: left;&quot;&gt;&lt;pre style=&quot;font-family: &amp;quot;JetBrains Mono&amp;quot;, monospace; font-size: 9.8pt;&quot;&gt;GetAllStartedDialogs&lt;/pre&gt;&lt;/li&gt;&lt;li style=&quot;text-align: left;&quot;&gt;&lt;pre style=&quot;font-family: &amp;quot;JetBrains Mono&amp;quot;, monospace; font-size: 9.8pt;&quot;&gt;FollowTK&lt;/pre&gt;&lt;/li&gt;&lt;/ol&gt;&lt;/pre&gt;&lt;/pre&gt;" style="rounded=0;whiteSpace=wrap;html=1;" parent="1" vertex="1">
          <mxGeometry x="200" y="710" width="210" height="240" as="geometry" />
        </mxCell>
        <mxCell id="vgp3z5RlEEKJQW33sawf-36" style="edgeStyle=orthogonalEdgeStyle;rounded=0;orthogonalLoop=1;jettySize=auto;html=1;" parent="1" source="vgp3z5RlEEKJQW33sawf-34" target="vgp3z5RlEEKJQW33sawf-35" edge="1">
          <mxGeometry relative="1" as="geometry" />
        </mxCell>
        <mxCell id="vgp3z5RlEEKJQW33sawf-34" value="&lt;pre style=&quot;background-color:#ffffff;color:#000000;font-family:&#39;JetBrains Mono&#39;,monospace;font-size:9.8pt;&quot;&gt;&lt;span style=&quot;color:#000080;background-color:#efefef;font-weight:bold;&quot;&gt;ChatMessages&lt;/span&gt;&lt;/pre&gt;&lt;pre style=&quot;background-color:#ffffff;color:#000000;font-family:&#39;JetBrains Mono&#39;,monospace;font-size:9.8pt;&quot;&gt;&lt;span style=&quot;color:#000080;background-color:#efefef;font-weight:bold;&quot;&gt;props:&lt;/span&gt;&lt;/pre&gt;&lt;pre style=&quot;background-color:#ffffff;color:#000000;font-family:&#39;JetBrains Mono&#39;,monospace;font-size:9.8pt;&quot;&gt;&lt;pre style=&quot;font-family: &amp;quot;JetBrains Mono&amp;quot;, monospace; font-size: 9.8pt;&quot;&gt;&lt;ol&gt;&lt;li style=&quot;text-align: left;&quot;&gt;idUser&lt;/li&gt;&lt;li style=&quot;text-align: left;&quot;&gt;photoUser&lt;/li&gt;&lt;li style=&quot;text-align: left;&quot;&gt;Messages&lt;/li&gt;&lt;/ol&gt;&lt;div style=&quot;&quot;&gt;&lt;span style=&quot;font-size: 9.8pt; white-space: normal;&quot;&gt;useEffect[]&lt;/span&gt;&lt;/div&gt;&lt;/pre&gt;&lt;/pre&gt;" style="rounded=0;whiteSpace=wrap;html=1;" parent="1" vertex="1">
          <mxGeometry x="690" y="360" width="120" height="140" as="geometry" />
        </mxCell>
        <mxCell id="vgp3z5RlEEKJQW33sawf-35" value="&lt;pre style=&quot;background-color:#ffffff;color:#000000;font-family:&#39;JetBrains Mono&#39;,monospace;font-size:9.8pt;&quot;&gt;&lt;span style=&quot;color:#000080;background-color:#efefef;font-weight:bold;&quot;&gt;ButtonFunctional&lt;/span&gt;&lt;/pre&gt;&lt;pre style=&quot;background-color:#ffffff;color:#000000;font-family:&#39;JetBrains Mono&#39;,monospace;font-size:9.8pt;&quot;&gt;&lt;span style=&quot;color:#000080;background-color:#efefef;font-weight:bold;&quot;&gt;props:&lt;/span&gt;&lt;/pre&gt;&lt;pre style=&quot;background-color: rgb(255, 255, 255);&quot;&gt;&lt;pre style=&quot;&quot;&gt;&lt;ol style=&quot;color: rgb(0, 0, 0); font-family: &amp;quot;JetBrains Mono&amp;quot;, monospace; font-size: 9.8pt;&quot;&gt;&lt;li style=&quot;text-align: left;&quot;&gt;idUser&lt;/li&gt;&lt;li style=&quot;text-align: left;&quot;&gt;idMessage&lt;/li&gt;&lt;/ol&gt;&lt;font face=&quot;JetBrains Mono, monospace&quot;&gt;&lt;span style=&quot;font-size: 13.0667px;&quot;&gt;Request&lt;/span&gt;&lt;/font&gt;&lt;/pre&gt;&lt;pre style=&quot;&quot;&gt;&lt;ol&gt;&lt;li style=&quot;text-align: left;&quot;&gt;&lt;font face=&quot;JetBrains Mono, monospace&quot;&gt;&lt;span style=&quot;font-size: 13.0667px;&quot;&gt;&lt;pre style=&quot;font-family: &amp;quot;JetBrains Mono&amp;quot;, monospace; font-size: 9.8pt;&quot;&gt;DelMessageTK&lt;/pre&gt;&lt;/span&gt;&lt;/font&gt;&lt;/li&gt;&lt;li style=&quot;text-align: left;&quot;&gt;&lt;pre style=&quot;font-family: &amp;quot;JetBrains Mono&amp;quot;, monospace; font-size: 9.8pt;&quot;&gt;SpamMessageTK&lt;/pre&gt;&lt;/li&gt;&lt;/ol&gt;&lt;/pre&gt;&lt;/pre&gt;" style="rounded=0;whiteSpace=wrap;html=1;" parent="1" vertex="1">
          <mxGeometry x="650" y="570" width="150" height="180" as="geometry" />
        </mxCell>
        <mxCell id="vgp3z5RlEEKJQW33sawf-38" value="&lt;pre style=&quot;background-color:#ffffff;color:#000000;font-family:&#39;JetBrains Mono&#39;,monospace;font-size:9.8pt;&quot;&gt;&lt;span style=&quot;color:#000080;background-color:#efefef;font-weight:bold;&quot;&gt;FullWidthTextField&lt;/span&gt;&lt;/pre&gt;&lt;pre style=&quot;background-color:#ffffff;color:#000000;font-family:&#39;JetBrains Mono&#39;,monospace;font-size:9.8pt;&quot;&gt;&lt;span style=&quot;color:#000080;background-color:#efefef;font-weight:bold;&quot;&gt;props:&lt;/span&gt;&lt;/pre&gt;&lt;pre style=&quot;background-color: rgb(255, 255, 255);&quot;&gt;&lt;ol style=&quot;color: rgb(0, 0, 0); font-family: &amp;quot;JetBrains Mono&amp;quot;, monospace; font-size: 9.8pt;&quot;&gt;&lt;li style=&quot;text-align: left;&quot;&gt;&lt;span style=&quot;color:#000080;background-color:#efefef;font-weight:bold;&quot;&gt;&lt;pre style=&quot;background-color:#ffffff;color:#000000;font-family:&#39;JetBrains Mono&#39;,monospace;font-size:9.8pt;&quot;&gt;lastDialogActivityDate&lt;/pre&gt;&lt;/span&gt;&lt;/li&gt;&lt;li style=&quot;text-align: left;&quot;&gt;&lt;pre style=&quot;background-color:#ffffff;color:#000000;font-family:&#39;JetBrains Mono&#39;,monospace;font-size:9.8pt;&quot;&gt;&lt;pre style=&quot;font-family: &amp;quot;JetBrains Mono&amp;quot;, monospace; font-size: 9.8pt;&quot;&gt;userName&lt;/pre&gt;&lt;/pre&gt;&lt;/li&gt;&lt;li style=&quot;text-align: left;&quot;&gt;&lt;pre style=&quot;font-family: &amp;quot;JetBrains Mono&amp;quot;, monospace; font-size: 9.8pt;&quot;&gt;photoUser&lt;/pre&gt;&lt;/li&gt;&lt;li style=&quot;text-align: left;&quot;&gt;IdUser&lt;/li&gt;&lt;li style=&quot;text-align: left;&quot;&gt;&lt;pre style=&quot;font-family: &amp;quot;JetBrains Mono&amp;quot;, monospace; font-size: 9.8pt;&quot;&gt;LastActiveUser&lt;/pre&gt;&lt;/li&gt;&lt;/ol&gt;&lt;font face=&quot;JetBrains Mono, monospace&quot;&gt;&lt;span style=&quot;font-size: 13.0667px;&quot;&gt;Request:&lt;/span&gt;&lt;/font&gt;&lt;/pre&gt;&lt;pre style=&quot;background-color: rgb(255, 255, 255);&quot;&gt;&lt;pre style=&quot;font-family: &amp;quot;JetBrains Mono&amp;quot;, monospace; font-size: 9.8pt;&quot;&gt;&lt;ol&gt;&lt;li style=&quot;text-align: left;&quot;&gt;WriteSMS&lt;/li&gt;&lt;/ol&gt;&lt;/pre&gt;&lt;/pre&gt;" style="rounded=0;whiteSpace=wrap;html=1;" parent="1" vertex="1">
          <mxGeometry x="840" y="360" width="210" height="250" as="geometry" />
        </mxCell>
        <mxCell id="oAbW2hnQfpr15mAtf9lJ-9" style="edgeStyle=orthogonalEdgeStyle;rounded=0;orthogonalLoop=1;jettySize=auto;html=1;" edge="1" parent="1" source="oAbW2hnQfpr15mAtf9lJ-1" target="oAbW2hnQfpr15mAtf9lJ-2">
          <mxGeometry relative="1" as="geometry" />
        </mxCell>
        <mxCell id="oAbW2hnQfpr15mAtf9lJ-10" style="edgeStyle=orthogonalEdgeStyle;rounded=0;orthogonalLoop=1;jettySize=auto;html=1;entryX=0.397;entryY=-0.028;entryDx=0;entryDy=0;entryPerimeter=0;" edge="1" parent="1" source="oAbW2hnQfpr15mAtf9lJ-1" target="oAbW2hnQfpr15mAtf9lJ-3">
          <mxGeometry relative="1" as="geometry" />
        </mxCell>
        <mxCell id="oAbW2hnQfpr15mAtf9lJ-11" style="edgeStyle=orthogonalEdgeStyle;rounded=0;orthogonalLoop=1;jettySize=auto;html=1;" edge="1" parent="1" source="oAbW2hnQfpr15mAtf9lJ-1" target="oAbW2hnQfpr15mAtf9lJ-6">
          <mxGeometry relative="1" as="geometry" />
        </mxCell>
        <mxCell id="oAbW2hnQfpr15mAtf9lJ-12" style="edgeStyle=orthogonalEdgeStyle;rounded=0;orthogonalLoop=1;jettySize=auto;html=1;" edge="1" parent="1" source="oAbW2hnQfpr15mAtf9lJ-1" target="oAbW2hnQfpr15mAtf9lJ-5">
          <mxGeometry relative="1" as="geometry" />
        </mxCell>
        <mxCell id="oAbW2hnQfpr15mAtf9lJ-13" style="edgeStyle=orthogonalEdgeStyle;rounded=0;orthogonalLoop=1;jettySize=auto;html=1;entryX=0.417;entryY=0;entryDx=0;entryDy=0;entryPerimeter=0;" edge="1" parent="1" source="oAbW2hnQfpr15mAtf9lJ-1" target="oAbW2hnQfpr15mAtf9lJ-4">
          <mxGeometry relative="1" as="geometry" />
        </mxCell>
        <mxCell id="oAbW2hnQfpr15mAtf9lJ-1" value="&lt;pre style=&quot;background-color:#ffffff;color:#000000;font-family:&#39;JetBrains Mono&#39;,monospace;font-size:9.8pt;&quot;&gt;&lt;span style=&quot;font-style:italic;&quot;&gt;ProfileUser&lt;/span&gt;&lt;/pre&gt;&lt;pre style=&quot;background-color:#ffffff;color:#000000;font-family:&#39;JetBrains Mono&#39;,monospace;font-size:9.8pt;&quot;&gt;&lt;pre style=&quot;font-family: &amp;quot;JetBrains Mono&amp;quot;, monospace; font-size: 9.8pt;&quot;&gt;useEffect[]&lt;/pre&gt;&lt;pre style=&quot;text-align: left; font-family: &amp;quot;JetBrains Mono&amp;quot;, monospace; font-size: 9.8pt;&quot;&gt;&lt;ol&gt;&lt;li&gt;&lt;pre style=&quot;font-family: &amp;quot;JetBrains Mono&amp;quot;, monospace; font-size: 9.8pt;&quot;&gt;GetMyProfilTK&lt;/pre&gt;&lt;/li&gt;&lt;li&gt;&lt;pre style=&quot;font-family: &amp;quot;JetBrains Mono&amp;quot;, monospace; font-size: 9.8pt;&quot;&gt;GetActivePageNoFriendTC&lt;/pre&gt;&lt;/li&gt;&lt;li&gt;GetActivePageFriendTC&lt;/li&gt;&lt;li&gt;&lt;pre style=&quot;font-family: &amp;quot;JetBrains Mono&amp;quot;, monospace; font-size: 9.8pt;&quot;&gt;GetTotalFriendCountTC&lt;/pre&gt;&lt;/li&gt;&lt;li&gt;&lt;pre style=&quot;font-family: &amp;quot;JetBrains Mono&amp;quot;, monospace; font-size: 9.8pt;&quot;&gt;GetTotalNoFriendCountTC&lt;/pre&gt;&lt;/li&gt;&lt;/ol&gt;&lt;/pre&gt;&lt;/pre&gt;" style="rounded=0;whiteSpace=wrap;html=1;" vertex="1" parent="1">
          <mxGeometry x="-995" width="280" height="210" as="geometry" />
        </mxCell>
        <mxCell id="oAbW2hnQfpr15mAtf9lJ-2" value="&lt;pre style=&quot;background-color: rgb(255, 255, 255); font-family: &amp;quot;JetBrains Mono&amp;quot;, monospace; font-size: 9.8pt;&quot;&gt;NavigationBlock&lt;/pre&gt;&lt;pre style=&quot;background-color: rgb(255, 255, 255); font-family: &amp;quot;JetBrains Mono&amp;quot;, monospace; font-size: 9.8pt;&quot;&gt;props&lt;/pre&gt;&lt;pre style=&quot;background-color: rgb(255, 255, 255);&quot;&gt;&lt;ol style=&quot;font-family: &amp;quot;JetBrains Mono&amp;quot;, monospace; font-size: 9.8pt;&quot;&gt;&lt;li&gt;&lt;pre style=&quot;text-align: left; font-family: &amp;quot;JetBrains Mono&amp;quot;, monospace; font-size: 9.8pt;&quot;&gt;EditModeProfil&lt;/pre&gt;&lt;/li&gt;&lt;li&gt;&lt;pre style=&quot;text-align: left; font-family: &amp;quot;JetBrains Mono&amp;quot;, monospace; font-size: 9.8pt;&quot;&gt;changeSetEditModeProfil&lt;/pre&gt;&lt;/li&gt;&lt;li&gt;&lt;pre style=&quot;text-align: left; font-family: &amp;quot;JetBrains Mono&amp;quot;, monospace; font-size: 9.8pt;&quot;&gt;FullName&lt;/pre&gt;&lt;/li&gt;&lt;li&gt;&lt;pre style=&quot;text-align: left; font-family: &amp;quot;JetBrains Mono&amp;quot;, monospace; font-size: 9.8pt;&quot;&gt;fotoUser&lt;/pre&gt;&lt;/li&gt;&lt;/ol&gt;&lt;font face=&quot;JetBrains Mono, monospace&quot;&gt;&lt;span style=&quot;font-size: 13.0667px;&quot;&gt;Request&lt;/span&gt;&lt;/font&gt;&lt;/pre&gt;&lt;pre style=&quot;background-color: rgb(255, 255, 255);&quot;&gt;&lt;pre style=&quot;font-family: &amp;quot;JetBrains Mono&amp;quot;, monospace; font-size: 9.8pt;&quot;&gt;&lt;ol&gt;&lt;li style=&quot;text-align: left;&quot;&gt;GetMyProfilTK&lt;/li&gt;&lt;li style=&quot;text-align: left;&quot;&gt;&lt;pre style=&quot;font-family: &amp;quot;JetBrains Mono&amp;quot;, monospace; font-size: 9.8pt;&quot;&gt;LoginOut&lt;/pre&gt;&lt;/li&gt;&lt;/ol&gt;&lt;/pre&gt;&lt;div style=&quot;text-align: left; font-size: 13.0667px;&quot;&gt;&lt;font face=&quot;JetBrains Mono, monospace&quot;&gt;&lt;br&gt;&lt;/font&gt;&lt;/div&gt;&lt;/pre&gt;" style="rounded=0;whiteSpace=wrap;html=1;" vertex="1" parent="1">
          <mxGeometry x="-1455" y="320" width="230" height="280" as="geometry" />
        </mxCell>
        <mxCell id="oAbW2hnQfpr15mAtf9lJ-8" style="edgeStyle=orthogonalEdgeStyle;rounded=0;orthogonalLoop=1;jettySize=auto;html=1;" edge="1" parent="1" source="oAbW2hnQfpr15mAtf9lJ-3" target="oAbW2hnQfpr15mAtf9lJ-7">
          <mxGeometry relative="1" as="geometry">
            <Array as="points">
              <mxPoint x="-1075" y="780" />
            </Array>
          </mxGeometry>
        </mxCell>
        <mxCell id="oAbW2hnQfpr15mAtf9lJ-3" value="&lt;pre style=&quot;background-color:#ffffff;color:#000000;font-family:&#39;JetBrains Mono&#39;,monospace;font-size:9.8pt;&quot;&gt;&lt;span style=&quot;color:#000080;background-color:#efefef;font-weight:bold;&quot;&gt;MainBlockFilterFun&lt;/span&gt;&lt;/pre&gt;&lt;pre style=&quot;background-color:#ffffff;color:#000000;font-family:&#39;JetBrains Mono&#39;,monospace;font-size:9.8pt;&quot;&gt;&lt;span style=&quot;color:#000080;background-color:#efefef;font-weight:bold;&quot;&gt;props&lt;/span&gt;&lt;/pre&gt;&lt;pre style=&quot;text-align: left; background-color: rgb(255, 255, 255); color: rgb(0, 0, 0); font-family: &amp;quot;JetBrains Mono&amp;quot;, monospace; font-size: 9.8pt;&quot;&gt;&lt;ol&gt;&lt;li&gt;&lt;span style=&quot;color:#000080;background-color:#efefef;font-weight:bold;&quot;&gt;&lt;pre style=&quot;background-color:#ffffff;color:#000000;font-family:&#39;JetBrains Mono&#39;,monospace;font-size:9.8pt;&quot;&gt;EditModeProfil&lt;/pre&gt;&lt;/span&gt;&lt;/li&gt;&lt;li&gt;&lt;pre style=&quot;background-color:#ffffff;color:#000000;font-family:&#39;JetBrains Mono&#39;,monospace;font-size:9.8pt;&quot;&gt;&lt;pre style=&quot;font-family: &amp;quot;JetBrains Mono&amp;quot;, monospace; font-size: 9.8pt;&quot;&gt;changeSetEditModeProfil&lt;/pre&gt;&lt;/pre&gt;&lt;/li&gt;&lt;/ol&gt;&lt;/pre&gt;" style="rounded=0;whiteSpace=wrap;html=1;" vertex="1" parent="1">
          <mxGeometry x="-1185" y="320" width="210" height="110" as="geometry" />
        </mxCell>
        <mxCell id="oAbW2hnQfpr15mAtf9lJ-4" value="&lt;pre style=&quot;background-color:#ffffff;color:#000000;font-family:&#39;JetBrains Mono&#39;,monospace;font-size:9.8pt;&quot;&gt;&lt;span style=&quot;color:#000080;background-color:#efefef;font-weight:bold;&quot;&gt;MainInfo&lt;/span&gt;&lt;/pre&gt;&lt;pre style=&quot;background-color:#ffffff;color:#000000;font-family:&#39;JetBrains Mono&#39;,monospace;font-size:9.8pt;&quot;&gt;&lt;span style=&quot;color:#000080;background-color:#efefef;font-weight:bold;&quot;&gt;props&lt;/span&gt;&lt;/pre&gt;&lt;pre style=&quot;background-color:#ffffff;color:#000000;font-family:&#39;JetBrains Mono&#39;,monospace;font-size:9.8pt;&quot;&gt;&lt;ol&gt;&lt;li style=&quot;text-align: left;&quot;&gt;&lt;span style=&quot;color:#000080;background-color:#efefef;font-weight:bold;&quot;&gt;&lt;pre style=&quot;background-color:#ffffff;color:#000000;font-family:&#39;JetBrains Mono&#39;,monospace;font-size:9.8pt;&quot;&gt;FullName&lt;/pre&gt;&lt;/span&gt;&lt;/li&gt;&lt;li style=&quot;text-align: left;&quot;&gt;&lt;pre style=&quot;background-color:#ffffff;color:#000000;font-family:&#39;JetBrains Mono&#39;,monospace;font-size:9.8pt;&quot;&gt;&lt;pre style=&quot;font-family: &amp;quot;JetBrains Mono&amp;quot;, monospace; font-size: 9.8pt;&quot;&gt;ProfesionSkils&lt;/pre&gt;&lt;/pre&gt;&lt;/li&gt;&lt;li style=&quot;text-align: left;&quot;&gt;&lt;pre style=&quot;font-family: &amp;quot;JetBrains Mono&amp;quot;, monospace; font-size: 9.8pt;&quot;&gt;AboutUser&lt;/pre&gt;&lt;/li&gt;&lt;li style=&quot;text-align: left;&quot;&gt;&lt;pre style=&quot;font-family: &amp;quot;JetBrains Mono&amp;quot;, monospace; font-size: 9.8pt;&quot;&gt;lokingForAJab&lt;/pre&gt;&lt;/li&gt;&lt;li style=&quot;text-align: left;&quot;&gt;&lt;pre style=&quot;font-family: &amp;quot;JetBrains Mono&amp;quot;, monospace; font-size: 9.8pt;&quot;&gt;contacts&lt;/pre&gt;&lt;/li&gt;&lt;li style=&quot;text-align: left;&quot;&gt;&lt;pre style=&quot;font-family: &amp;quot;JetBrains Mono&amp;quot;, monospace; font-size: 9.8pt;&quot;&gt;photos&lt;/pre&gt;&lt;/li&gt;&lt;/ol&gt;&lt;/pre&gt;" style="rounded=0;whiteSpace=wrap;html=1;" vertex="1" parent="1">
          <mxGeometry x="-935" y="320" width="190" height="240" as="geometry" />
        </mxCell>
        <mxCell id="oAbW2hnQfpr15mAtf9lJ-5" value="&lt;pre style=&quot;background-color:#ffffff;color:#000000;font-family:&#39;JetBrains Mono&#39;,monospace;font-size:9.8pt;&quot;&gt;&lt;span style=&quot;color:#000080;background-color:#efefef;font-weight:bold;&quot;&gt;MainBlockFilters&lt;/span&gt;&lt;/pre&gt;&lt;pre style=&quot;background-color:#ffffff;color:#000000;font-family:&#39;JetBrains Mono&#39;,monospace;font-size:9.8pt;&quot;&gt;&lt;span style=&quot;color:#000080;background-color:#efefef;font-weight:bold;&quot;&gt;props&lt;/span&gt;&lt;/pre&gt;&lt;pre style=&quot;background-color: rgb(255, 255, 255);&quot;&gt;&lt;pre style=&quot;&quot;&gt;&lt;ol style=&quot;color: rgb(0, 0, 0); font-family: &amp;quot;JetBrains Mono&amp;quot;, monospace; font-size: 9.8pt;&quot;&gt;&lt;li style=&quot;text-align: left;&quot;&gt;chengeStateResultTable&lt;/li&gt;&lt;li style=&quot;text-align: left;&quot;&gt;&lt;pre style=&quot;font-family: &amp;quot;JetBrains Mono&amp;quot;, monospace; font-size: 9.8pt;&quot;&gt;StateResultTable&lt;/pre&gt;&lt;/li&gt;&lt;/ol&gt;&lt;font face=&quot;JetBrains Mono, monospace&quot;&gt;&lt;span style=&quot;font-size: 13.0667px;&quot;&gt;request&lt;/span&gt;&lt;/font&gt;&lt;/pre&gt;&lt;pre style=&quot;&quot;&gt;&lt;pre style=&quot;font-family: &amp;quot;JetBrains Mono&amp;quot;, monospace; font-size: 9.8pt;&quot;&gt;&lt;ol&gt;&lt;li style=&quot;text-align: left;&quot;&gt;SearchTK&lt;/li&gt;&lt;/ol&gt;&lt;/pre&gt;&lt;/pre&gt;&lt;/pre&gt;" style="rounded=0;whiteSpace=wrap;html=1;" vertex="1" parent="1">
          <mxGeometry x="-725" y="320" width="231" height="160" as="geometry" />
        </mxCell>
        <mxCell id="oAbW2hnQfpr15mAtf9lJ-21" style="edgeStyle=orthogonalEdgeStyle;rounded=0;orthogonalLoop=1;jettySize=auto;html=1;entryX=0.5;entryY=0;entryDx=0;entryDy=0;" edge="1" parent="1" source="oAbW2hnQfpr15mAtf9lJ-6" target="oAbW2hnQfpr15mAtf9lJ-17">
          <mxGeometry relative="1" as="geometry">
            <Array as="points">
              <mxPoint x="-370" y="520" />
              <mxPoint x="-715" y="520" />
            </Array>
          </mxGeometry>
        </mxCell>
        <mxCell id="oAbW2hnQfpr15mAtf9lJ-22" style="edgeStyle=orthogonalEdgeStyle;rounded=0;orthogonalLoop=1;jettySize=auto;html=1;" edge="1" parent="1" source="oAbW2hnQfpr15mAtf9lJ-6" target="oAbW2hnQfpr15mAtf9lJ-14">
          <mxGeometry relative="1" as="geometry">
            <Array as="points">
              <mxPoint x="-370" y="520" />
              <mxPoint x="-515" y="520" />
            </Array>
          </mxGeometry>
        </mxCell>
        <mxCell id="oAbW2hnQfpr15mAtf9lJ-6" value="&lt;pre style=&quot;background-color:#ffffff;color:#000000;font-family:&#39;JetBrains Mono&#39;,monospace;font-size:9.8pt;&quot;&gt;&lt;span style=&quot;color:#000080;background-color:#efefef;font-weight:bold;&quot;&gt;MainBlockUsersInfo&lt;/span&gt;&lt;/pre&gt;&lt;pre style=&quot;background-color:#ffffff;color:#000000;font-family:&#39;JetBrains Mono&#39;,monospace;font-size:9.8pt;&quot;&gt;&lt;span style=&quot;color:#000080;background-color:#efefef;font-weight:bold;&quot;&gt;props&lt;/span&gt;&lt;/pre&gt;&lt;pre style=&quot;background-color:#ffffff;color:#000000;font-family:&#39;JetBrains Mono&#39;,monospace;font-size:9.8pt;&quot;&gt;&lt;pre style=&quot;font-family: &amp;quot;JetBrains Mono&amp;quot;, monospace; font-size: 9.8pt;&quot;&gt;&lt;ol&gt;&lt;li&gt;StateResultTable&lt;/li&gt;&lt;/ol&gt;&lt;/pre&gt;&lt;/pre&gt;" style="rounded=0;whiteSpace=wrap;html=1;" vertex="1" parent="1">
          <mxGeometry x="-465" y="320" width="190" height="80" as="geometry" />
        </mxCell>
        <mxCell id="oAbW2hnQfpr15mAtf9lJ-7" value="&lt;pre style=&quot;background-color:#ffffff;color:#000000;font-family:&#39;JetBrains Mono&#39;,monospace;font-size:9.8pt;&quot;&gt;&lt;span style=&quot;color:#000080;background-color:#efefef;font-weight:bold;&quot;&gt;EditModeProfilWind&lt;/span&gt;&lt;/pre&gt;&lt;pre style=&quot;background-color:#ffffff;color:#000000;font-family:&#39;JetBrains Mono&#39;,monospace;font-size:9.8pt;&quot;&gt;&lt;span style=&quot;color:#000080;background-color:#efefef;font-weight:bold;&quot;&gt;props&lt;/span&gt;&lt;/pre&gt;&lt;pre style=&quot;background-color: rgb(255, 255, 255);&quot;&gt;&lt;ol style=&quot;color: rgb(0, 0, 0); font-family: &amp;quot;JetBrains Mono&amp;quot;, monospace; font-size: 9.8pt;&quot;&gt;&lt;li style=&quot;text-align: left;&quot;&gt;&lt;span style=&quot;color:#000080;background-color:#efefef;font-weight:bold;&quot;&gt;&lt;pre style=&quot;background-color:#ffffff;color:#000000;font-family:&#39;JetBrains Mono&#39;,monospace;font-size:9.8pt;&quot;&gt;EditModeProfil&lt;/pre&gt;&lt;/span&gt;&lt;/li&gt;&lt;li style=&quot;text-align: left;&quot;&gt;&lt;pre style=&quot;background-color:#ffffff;color:#000000;font-family:&#39;JetBrains Mono&#39;,monospace;font-size:9.8pt;&quot;&gt;&lt;pre style=&quot;font-family: &amp;quot;JetBrains Mono&amp;quot;, monospace; font-size: 9.8pt;&quot;&gt;changeSetEditModeProfil&lt;/pre&gt;&lt;/pre&gt;&lt;/li&gt;&lt;/ol&gt;&lt;font face=&quot;JetBrains Mono, monospace&quot;&gt;&lt;span style=&quot;font-size: 13.0667px;&quot;&gt;Requests&lt;/span&gt;&lt;/font&gt;&lt;/pre&gt;&lt;pre style=&quot;background-color: rgb(255, 255, 255);&quot;&gt;&lt;ol&gt;&lt;li style=&quot;text-align: left;&quot;&gt;&lt;font face=&quot;JetBrains Mono, monospace&quot;&gt;&lt;span style=&quot;font-size: 13.0667px;&quot;&gt;&lt;pre style=&quot;font-family: &amp;quot;JetBrains Mono&amp;quot;, monospace; font-size: 9.8pt;&quot;&gt;SaveFotoTK&lt;/pre&gt;&lt;/span&gt;&lt;/font&gt;&lt;/li&gt;&lt;li style=&quot;text-align: left;&quot;&gt;&lt;pre style=&quot;font-family: &amp;quot;JetBrains Mono&amp;quot;, monospace; font-size: 9.8pt;&quot;&gt;profilChangeTK&lt;/pre&gt;&lt;/li&gt;&lt;/ol&gt;&lt;pre style=&quot;font-family: &amp;quot;JetBrains Mono&amp;quot;, monospace; font-size: 9.8pt;&quot;&gt;useEffect[ProfilData]&lt;/pre&gt;&lt;pre style=&quot;font-family: &amp;quot;JetBrains Mono&amp;quot;, monospace; font-size: 9.8pt;&quot;&gt;&lt;br&gt;&lt;/pre&gt;&lt;/pre&gt;" style="rounded=0;whiteSpace=wrap;html=1;" vertex="1" parent="1">
          <mxGeometry x="-1500" y="650" width="270" height="260" as="geometry" />
        </mxCell>
        <mxCell id="oAbW2hnQfpr15mAtf9lJ-25" style="edgeStyle=orthogonalEdgeStyle;rounded=0;orthogonalLoop=1;jettySize=auto;html=1;" edge="1" parent="1" source="oAbW2hnQfpr15mAtf9lJ-14" target="oAbW2hnQfpr15mAtf9lJ-15">
          <mxGeometry relative="1" as="geometry">
            <Array as="points">
              <mxPoint x="-405" y="665" />
              <mxPoint x="-405" y="665" />
            </Array>
          </mxGeometry>
        </mxCell>
        <mxCell id="oAbW2hnQfpr15mAtf9lJ-14" value="&lt;pre style=&quot;background-color:#ffffff;color:#000000;font-family:&#39;JetBrains Mono&#39;,monospace;font-size:9.8pt;&quot;&gt;&lt;span style=&quot;color:#000080;background-color:#efefef;font-weight:bold;&quot;&gt;CounterFriendsUser&lt;/span&gt;&lt;/pre&gt;&lt;pre style=&quot;background-color:#ffffff;color:#000000;font-family:&#39;JetBrains Mono&#39;,monospace;font-size:9.8pt;&quot;&gt;&lt;span style=&quot;color:#000080;background-color:#efefef;font-weight:bold;&quot;&gt;props&lt;/span&gt;&lt;/pre&gt;&lt;pre style=&quot;background-color:#ffffff;color:#000000;font-family:&#39;JetBrains Mono&#39;,monospace;font-size:9.8pt;&quot;&gt;&lt;ol&gt;&lt;li style=&quot;text-align: left;&quot;&gt;&lt;span style=&quot;color:#000080;background-color:#efefef;font-weight:bold;&quot;&gt;&lt;pre style=&quot;background-color:#ffffff;color:#000000;font-family:&#39;JetBrains Mono&#39;,monospace;font-size:9.8pt;&quot;&gt;UsersCount&lt;/pre&gt;&lt;/span&gt;&lt;/li&gt;&lt;/ol&gt;request&lt;br&gt;&lt;/pre&gt;&lt;pre style=&quot;background-color:#ffffff;color:#000000;font-family:&#39;JetBrains Mono&#39;,monospace;font-size:9.8pt;&quot;&gt;&lt;ol&gt;&lt;li style=&quot;text-align: left;&quot;&gt;&lt;pre style=&quot;font-family: &amp;quot;JetBrains Mono&amp;quot;, monospace; font-size: 9.8pt;&quot;&gt;SetCurrentPageFriends&lt;/pre&gt;&lt;/li&gt;&lt;li style=&quot;text-align: left;&quot;&gt;&lt;pre style=&quot;font-family: &amp;quot;JetBrains Mono&amp;quot;, monospace; font-size: 9.8pt;&quot;&gt;GetActivePageFriendTC&lt;/pre&gt;&lt;/li&gt;&lt;li style=&quot;text-align: left;&quot;&gt;&lt;pre style=&quot;font-family: &amp;quot;JetBrains Mono&amp;quot;, monospace; font-size: 9.8pt;&quot;&gt;SetCurrentPageFriends&lt;/pre&gt;&lt;/li&gt;&lt;li style=&quot;text-align: left;&quot;&gt;&lt;pre style=&quot;font-family: &amp;quot;JetBrains Mono&amp;quot;, monospace; font-size: 9.8pt;&quot;&gt;GetActivePageFriendTC&lt;/pre&gt;&lt;/li&gt;&lt;li style=&quot;text-align: left;&quot;&gt;&lt;pre style=&quot;font-family: &amp;quot;JetBrains Mono&amp;quot;, monospace; font-size: 9.8pt;&quot;&gt;SetCurrentPageFriends&lt;/pre&gt;&lt;/li&gt;&lt;li style=&quot;text-align: left;&quot;&gt;&lt;pre style=&quot;font-family: &amp;quot;JetBrains Mono&amp;quot;, monospace; font-size: 9.8pt;&quot;&gt;GetActivePageFriendTC&lt;/pre&gt;&lt;/li&gt;&lt;li style=&quot;text-align: left;&quot;&gt;&lt;pre style=&quot;font-family: &amp;quot;JetBrains Mono&amp;quot;, monospace; font-size: 9.8pt;&quot;&gt;SetCurrentPageFriends&lt;/pre&gt;&lt;/li&gt;&lt;li style=&quot;text-align: left;&quot;&gt;&lt;pre style=&quot;font-family: &amp;quot;JetBrains Mono&amp;quot;, monospace; font-size: 9.8pt;&quot;&gt;GetActivePageFriendTC&lt;/pre&gt;&lt;/li&gt;&lt;/ol&gt;&lt;/pre&gt;" style="rounded=0;whiteSpace=wrap;html=1;" vertex="1" parent="1">
          <mxGeometry x="-615" y="635" width="200" height="350" as="geometry" />
        </mxCell>
        <mxCell id="oAbW2hnQfpr15mAtf9lJ-26" style="edgeStyle=orthogonalEdgeStyle;rounded=0;orthogonalLoop=1;jettySize=auto;html=1;" edge="1" parent="1" source="oAbW2hnQfpr15mAtf9lJ-15" target="oAbW2hnQfpr15mAtf9lJ-14">
          <mxGeometry relative="1" as="geometry">
            <Array as="points">
              <mxPoint x="-390" y="665" />
              <mxPoint x="-390" y="660" />
            </Array>
          </mxGeometry>
        </mxCell>
        <mxCell id="oAbW2hnQfpr15mAtf9lJ-15" value="&lt;pre style=&quot;background-color:#ffffff;color:#000000;font-family:&#39;JetBrains Mono&#39;,monospace;font-size:9.8pt;&quot;&gt;&lt;span style=&quot;color:#000080;background-color:#efefef;font-weight:bold;&quot;&gt;CounterNoFriendUser&lt;/span&gt;&lt;/pre&gt;&lt;pre style=&quot;background-color:#ffffff;color:#000000;font-family:&#39;JetBrains Mono&#39;,monospace;font-size:9.8pt;&quot;&gt;&lt;span style=&quot;color:#000080;background-color:#efefef;font-weight:bold;&quot;&gt;props&lt;/span&gt;&lt;/pre&gt;&lt;pre style=&quot;background-color:#ffffff;color:#000000;font-family:&#39;JetBrains Mono&#39;,monospace;font-size:9.8pt;&quot;&gt;&lt;pre style=&quot;font-family: &amp;quot;JetBrains Mono&amp;quot;, monospace; font-size: 9.8pt;&quot;&gt;&lt;ol&gt;&lt;li style=&quot;text-align: left;&quot;&gt;UsersCount&lt;/li&gt;&lt;/ol&gt;&lt;/pre&gt;&lt;/pre&gt;" style="rounded=0;whiteSpace=wrap;html=1;" vertex="1" parent="1">
          <mxGeometry x="-395" y="635" width="190" height="60" as="geometry" />
        </mxCell>
        <mxCell id="oAbW2hnQfpr15mAtf9lJ-19" style="edgeStyle=orthogonalEdgeStyle;rounded=0;orthogonalLoop=1;jettySize=auto;html=1;" edge="1" parent="1" source="oAbW2hnQfpr15mAtf9lJ-16" target="oAbW2hnQfpr15mAtf9lJ-17">
          <mxGeometry relative="1" as="geometry" />
        </mxCell>
        <mxCell id="oAbW2hnQfpr15mAtf9lJ-16" value="&lt;pre style=&quot;background-color:#ffffff;color:#000000;font-family:&#39;JetBrains Mono&#39;,monospace;font-size:9.8pt;&quot;&gt;&lt;span style=&quot;font-style:italic;&quot;&gt;TableFriend&lt;/span&gt;&lt;/pre&gt;&lt;pre style=&quot;background-color:#ffffff;color:#000000;font-family:&#39;JetBrains Mono&#39;,monospace;font-size:9.8pt;&quot;&gt;&lt;span style=&quot;font-style:italic;&quot;&gt;props&lt;/span&gt;&lt;/pre&gt;&lt;pre style=&quot;background-color: rgb(255, 255, 255);&quot;&gt;&lt;pre style=&quot;&quot;&gt;&lt;ol style=&quot;color: rgb(0, 0, 0); font-family: &amp;quot;JetBrains Mono&amp;quot;, monospace; font-size: 9.8pt;&quot;&gt;&lt;li style=&quot;text-align: left;&quot;&gt;tl&lt;/li&gt;&lt;/ol&gt;&lt;pre style=&quot;font-family: &amp;quot;JetBrains Mono&amp;quot;, monospace; font-size: 9.8pt;&quot;&gt;useEffect&lt;/pre&gt;&lt;pre style=&quot;font-family: &amp;quot;JetBrains Mono&amp;quot;, monospace; font-size: 9.8pt;&quot;&gt;&lt;ol&gt;&lt;li style=&quot;text-align: left;&quot;&gt;&lt;pre style=&quot;font-family: &amp;quot;JetBrains Mono&amp;quot;, monospace; font-size: 9.8pt;&quot;&gt;GetUsersProfilTK&lt;/pre&gt;&lt;/li&gt;&lt;/ol&gt;request&lt;br&gt;&lt;/pre&gt;&lt;pre style=&quot;font-family: &amp;quot;JetBrains Mono&amp;quot;, monospace; font-size: 9.8pt;&quot;&gt;&lt;ol&gt;&lt;li style=&quot;text-align: left;&quot;&gt;&lt;pre style=&quot;font-family: &amp;quot;JetBrains Mono&amp;quot;, monospace; font-size: 9.8pt;&quot;&gt;UnFollowTK&lt;/pre&gt;&lt;/li&gt;&lt;li style=&quot;text-align: left;&quot;&gt;&lt;pre style=&quot;font-family: &amp;quot;JetBrains Mono&amp;quot;, monospace; font-size: 9.8pt;&quot;&gt;GetTotalFriendCountTC&lt;/pre&gt;&lt;/li&gt;&lt;li style=&quot;text-align: left;&quot;&gt;&lt;pre style=&quot;font-family: &amp;quot;JetBrains Mono&amp;quot;, monospace; font-size: 9.8pt;&quot;&gt;GetTotalNoFriendCountTC&lt;/pre&gt;&lt;/li&gt;&lt;li style=&quot;text-align: left;&quot;&gt;&lt;pre style=&quot;font-family: &amp;quot;JetBrains Mono&amp;quot;, monospace; font-size: 9.8pt;&quot;&gt;GetActivePageNoFriendTC&lt;/pre&gt;&lt;/li&gt;&lt;li style=&quot;text-align: left;&quot;&gt;&lt;pre style=&quot;font-family: &amp;quot;JetBrains Mono&amp;quot;, monospace; font-size: 9.8pt;&quot;&gt;GetMyProfilTK&lt;/pre&gt;&lt;/li&gt;&lt;/ol&gt;&lt;/pre&gt;&lt;/pre&gt;&lt;/pre&gt;" style="rounded=0;whiteSpace=wrap;html=1;" vertex="1" parent="1">
          <mxGeometry x="-1025" y="640" width="230" height="320" as="geometry" />
        </mxCell>
        <mxCell id="oAbW2hnQfpr15mAtf9lJ-18" style="edgeStyle=orthogonalEdgeStyle;rounded=0;orthogonalLoop=1;jettySize=auto;html=1;" edge="1" parent="1" source="oAbW2hnQfpr15mAtf9lJ-17" target="oAbW2hnQfpr15mAtf9lJ-16">
          <mxGeometry relative="1" as="geometry" />
        </mxCell>
        <mxCell id="oAbW2hnQfpr15mAtf9lJ-17" value="&lt;pre style=&quot;background-color:#ffffff;color:#000000;font-family:&#39;JetBrains Mono&#39;,monospace;font-size:9.8pt;&quot;&gt;&lt;span style=&quot;font-style:italic;&quot;&gt;TableNoFriend&lt;/span&gt;&lt;/pre&gt;" style="rounded=0;whiteSpace=wrap;html=1;" vertex="1" parent="1">
          <mxGeometry x="-775" y="640" width="120" height="320" as="geometry" />
        </mxCell>
        <mxCell id="oAbW2hnQfpr15mAtf9lJ-28" style="edgeStyle=orthogonalEdgeStyle;rounded=0;orthogonalLoop=1;jettySize=auto;html=1;" edge="1" parent="1" source="oAbW2hnQfpr15mAtf9lJ-27" target="vgp3z5RlEEKJQW33sawf-1">
          <mxGeometry relative="1" as="geometry" />
        </mxCell>
        <mxCell id="oAbW2hnQfpr15mAtf9lJ-29" style="edgeStyle=orthogonalEdgeStyle;rounded=0;orthogonalLoop=1;jettySize=auto;html=1;" edge="1" parent="1" source="oAbW2hnQfpr15mAtf9lJ-27" target="oAbW2hnQfpr15mAtf9lJ-1">
          <mxGeometry relative="1" as="geometry" />
        </mxCell>
        <mxCell id="oAbW2hnQfpr15mAtf9lJ-27" value="&lt;pre style=&quot;background-color:#ffffff;color:#000000;font-family:&#39;JetBrains Mono&#39;,monospace;font-size:9.8pt;&quot;&gt;&lt;span style=&quot;font-style:italic;&quot;&gt;App&lt;/span&gt;&lt;/pre&gt;&lt;pre style=&quot;background-color:#ffffff;color:#000000;font-family:&#39;JetBrains Mono&#39;,monospace;font-size:9.8pt;&quot;&gt;&lt;span style=&quot;font-style:italic;&quot;&gt;useEffect[]&lt;/span&gt;&lt;/pre&gt;&lt;pre style=&quot;background-color:#ffffff;color:#000000;font-family:&#39;JetBrains Mono&#39;,monospace;font-size:9.8pt;&quot;&gt;&lt;pre style=&quot;font-family: &amp;quot;JetBrains Mono&amp;quot;, monospace; font-size: 9.8pt;&quot;&gt;&lt;ol&gt;&lt;li style=&quot;text-align: left;&quot;&gt;initializeAppTC&lt;/li&gt;&lt;/ol&gt;&lt;/pre&gt;&lt;/pre&gt;" style="rounded=0;whiteSpace=wrap;html=1;" vertex="1" parent="1">
          <mxGeometry x="-360" y="-290" width="230" height="140" as="geometry" />
        </mxCell>
      </root>
    </mxGraphModel>
  </diagram>
</mxfile>
